PathFileType	4	(X/Y/Z)	C:/Users/beibeiliu/ov580/test_trc/User1\sequence.29_training_dense_right.trc
DataRate	CameraRate	NumFrames	NumMarkers	Units	OrigDataRate	OrigDataStartFrame	OrigNumFrames
120	120	8	19	mm	120	172	228
Frame#	Time	ThumbCMC			ThumbMCP			ThumbIP			ThumbTip			IndexMCP			IndexPIP			IndexTip			MiddleMCP			MiddlePIP			MiddleTip			RingMCP			RingPIP			RingTip			PinkyMCP			PinkyPIP			PinkyTip			BackHand1			BackHand2			BackHand3	
		X0	Y0	Z0	X1	Y1	Z1	X2	Y2	Z2	X3	Y3	Z3	X4	Y4	Z4	X5	Y5	Z5	X6	Y6	Z6	X7	Y7	Z7	X8	Y8	Z8	X9	Y9	Z9	X10	Y10	Z10	X11	Y11	Z11	X12	Y12	Z12	X13	Y13	Z13	X14	Y14	Z14	X15	Y15	Z15	X16	Y16	Z16	X17	Y17	Z17	X18	Y18	Z18	
171	1.425	134.076	-52.1091	67.3623	133.96	-69.1168	40.0825	134.5	-72.4192	9.52196	132.952	-81.463	-10.6421	145.954	-22.9106	-10.5797	149.461	-30.4103	-36.9309	154.372	-44.4639	-61.9002	175.312	-0.158739	-7.97393	179.336	8.28923	-33.1803	183.568	19.7195	-58.8397	201.236	-3.52931	8.78875	203.98	11.8833	-16.5764	213.092	25.5704	-37.3735	222.125	-15.0831	24.7363	230.007	-7.30522	15.3662	239.869	15.444	2.83284	190.788	-14.0859	56.1988	191.206	-15.0529	87.3608	154.707	-15.3692	70.2119	
172	1.43333	136.872	-52.25	67.8653	134.153	-70.2258	38.8215	131.463	-75.508	8.52476	133.343	-81.3025	-13.2607	143.486	-24.0019	-8.53426	145.29	-33.7624	-37.7002	153.123	-47.283	-63.0418	170.613	-1.2404	-7.07346	172.407	7.64031	-34.6258	181.359	17.094	-58.0534	198.171	-1.81988	5.91297	204.374	10.531	-13.0511	207.235	22.847	-36.958	222.752	-18.0979	28.9041	232.344	-5.18413	14.9364	237.138	14.4835	1.10913	191.041	-13.6231	54.8836	189.268	-15.2203	87.2307	158.485	-15.0668	70.299	
173	1.44167	137.931	-52.2737	70.2141	135.443	-70.0423	39.8492	131.626	-75.4974	9.7209	132.824	-83.4011	-13.3724	142.327	-25.0151	-11.4058	147.36	-32.6009	-36.3444	156.581	-47.2433	-60.9364	172.893	-0.821082	-6.74849	171.651	6.93128	-32.3981	178.281	17.1543	-60.1182	197.173	-2.38442	7.75338	200.604	11.1905	-15.1407	207.716	24.5234	-38.4299	221.44	-17.6141	27.9611	227.012	-6.19223	14.1717	233.708	15.6034	3.41971	190.184	-15.2451	57.0747	190.264	-13.5697	90.1099	153.37	-15.7649	68.978	
174	1.45	136.507	-53.7938	72.0432	134.963	-70.3187	37.6681	133.862	-76.7684	13.9021	132.896	-85.8781	-11.1941	142.634	-25.3423	-10.7	145.226	-34.1612	-35.6767	154.748	-48.3022	-62.0296	172.946	-1.61547	-4.44741	172.753	4.90783	-29.6206	173.317	16.7187	-58.4945	196.951	-1.6642	8.76445	202.316	14.4397	-17.2531	209.128	25.6687	-37.1806	219.508	-15.9576	25.9289	227.445	-5.22378	13.7579	233.247	16.3106	0.412985	189.93	-11.8716	56.72	192.79	-14.5632	90.5302	155.996	-16.8512	71.1084	
175	1.45833	137.161	-53.7835	70.6977	135.067	-71.4226	38.1158	132.377	-77.2998	11.3393	136.68	-84.3166	-7.92945	143.697	-24.6527	-8.13274	145.503	-32.4365	-35.9355	150.852	-47.9511	-61.9786	169.156	-1.77839	-4.57414	169.976	8.61144	-33.8108	177.382	17.0212	-56.1217	196.841	-0.145141	6.57341	199.869	13.9021	-16.449	205.358	22.6966	-35.6555	220.654	-12.6147	23.931	225.816	-2.46793	11.1838	233.279	16.5485	4.63275	192.564	-11.7364	58.9137	189.507	-15.9329	90.5496	156.709	-14.2637	69.628	
176	1.46667	138.509	-54.2557	71.5473	135.549	-71.405	39.3707	132.516	-77.9125	10.5175	137.696	-83.6915	-9.71386	144.673	-23.6022	-9.85674	142.392	-31.5111	-36.2004	148.394	-44.2219	-59.139	170.72	0.237452	-6.98167	170.077	8.52708	-32.3013	176.306	19.182	-57.1141	192.723	1.14684	5.15354	196.584	12.4199	-13.5948	205.121	26.4682	-37.6722	218.589	-12.6547	24.7892	228.84	-3.22038	14.9975	234.192	15.5728	4.90708	191.576	-12.0505	53.6015	190.227	-13.8668	90.9393	156.525	-17.4027	69.1371	
177	1.475	137.393	-55.8475	72.6301	134.818	-74.3001	40.3979	136.888	-75.2265	10.8282	133.544	-87.9027	-10.0692	139.318	-23.6782	-8.99333	144.871	-29.5186	-38.1526	149.336	-40.9698	-60.3244	170.609	0.0691089	-2.57257	167.346	10.0897	-32.621	173.163	23.1036	-58.959	197.395	1.70917	8.11295	199.771	15.4526	-13.378	203.442	27.0722	-36.3197	220.409	-12.6332	26.9295	224.227	-1.59286	13.7886	230.929	19.634	-0.236442	189.269	-11.0916	58.9644	191.052	-11.9899	91.4755	154.264	-15.9083	71.6303	
178	1.48333	140.024	-54.4932	73.1013	136.376	-72.6906	37.4592	133.198	-79.2843	11.1977	133.829	-87.1987	-10.3396	140.301	-22.9496	-5.28788	143.343	-26.3673	-35.1201	148.544	-38.3173	-62.088	169.011	0.424808	-2.90871	168.062	10.242	-28.5969	172.975	24.1002	-59.4675	193.558	3.64628	5.65477	201.016	16.7644	-13.0257	204.648	27.7097	-35.3888	216.468	-11.4409	26.1015	224.431	0.621385	13.1772	231.761	19.8869	4.26889	188.889	-11.4026	56.2326	191.102	-10.2542	88.8447	157.546	-16.5001	69.3129	
